# xmcd
#
# Track frame offsets: 
#        150
#        10643
#        11773
#        22671
#        22983
#        35533
#        48127
#        59127
#        60931
#        65539
#        71989
#        84946
#        93088
#        93780
#        100895
#        111321
#        122742
#        123117
#        128823
#        132926
#        141644
#        151856
#
# Disc length: 2186 seconds
#
# Revision: 2
# Processed by: cddbd v1.5.2PL0 Copyright (c) Steve Scherf et al.
# Submitted via: ExactAudioCopyFreeDBPlugin 1.0
#
DISCID=1a088816
DTITLE=Adam Green - Aladdin
DYEAR=2016
DGENRE=Alternative
TTITLE0=Fix My Blues
TTITLE1=God =Humans
TTITLE2=Nature Of The Clown
TTITLE3=Aladdin Are You OK
TTITLE4=Someone Else's Plan
TTITLE5=Time Chair
TTITLE6=Never Lift A Finger
TTITLE7=Techno-Fungal Insect Species
TTITLE8=Birthday Mambo
TTITLE9=Chinese Dance Theme
TTITLE10=Me From Far Away
TTITLE11=Do Some Blow (With Me)
TTITLE12=I Only Take Cocaine
TTITLE13=Phoning In The Blues
TTITLE14=Trading Our Graves
TTITLE15=Life In A Videogame
TTITLE16=No Master Piece Policy
TTITLE17=Interested In Music
TTITLE18=What Is Dying Like
TTITLE19=Untitled Track20
TTITLE20=Untitled Track21
TTITLE21=Untitled Track22
EXTD=
EXTT0=
EXTT1=
EXTT2=
EXTT3=
EXTT4=
EXTT5=
EXTT6=
EXTT7=
EXTT8=
EXTT9=
EXTT10=
EXTT11=
EXTT12=
EXTT13=
EXTT14=
EXTT15=
EXTT16=
EXTT17=
EXTT18=
EXTT19=
EXTT20=
EXTT21=
PLAYORDER=
